<svg width="18" height="13" viewBox="0 0 18 13" fill="none" xmlns="http://www.w3.org/2000/svg">
<path fill-rule="evenodd" clip-rule="evenodd" d="M15.75 6.5C15.75 9.19239 12.7279 11.375 9 11.375C5.27208 11.375 2.25 9.19239 2.25 6.5C2.25 3.80761 5.27208 1.625 9 1.625C12.7279 1.625 15.75 3.80761 15.75 6.5ZM4.37864 8.66667L5.18932 8.08118L7.37864 6.5L5.18932 4.91882L4.37864 4.33333L6 3.16235L6.81068 3.74784L9 5.32902L11.1893 3.74784L12 3.16235L13.6214 4.33333L12.8107 4.91882L10.6214 6.5L12.8107 8.08118L13.6214 8.66667L12 9.83765L11.1893 9.25216L9 7.67098L6.81068 9.25216L6 9.83765L4.37864 8.66667Z" fill="#222222"/>
</svg>
