<svg width="37" height="24" viewBox="0 0 37 24" fill="none" xmlns="http://www.w3.org/2000/svg">
<path fill-rule="evenodd" clip-rule="evenodd" d="M19.8599 7.72822L24.5116 4.86226C25.1387 4.47588 25.4523 4.28269 25.7889 4.2105C26.0653 4.15119 26.3513 4.15119 26.6278 4.2105C26.9643 4.28269 27.2779 4.47588 27.905 4.86226C29.4117 5.7905 30.165 6.25462 30.4121 6.85624C30.6121 7.34315 30.6121 7.88929 30.4121 8.3762C30.165 8.97782 29.4117 9.44194 27.905 10.3702L26.2945 11.3625L25.93 11.2876C23.5346 10.7957 21.413 9.52526 19.8599 7.72822ZM18.1384 8.78884L7.4189 15.3932C6.79939 15.7749 6.48963 15.9657 6.26957 16.2456C6.04951 16.5255 5.93718 16.8716 5.71251 17.5637L4.86735 20.1672C4.75832 20.5031 4.70381 20.671 4.7911 20.7768C4.87838 20.8826 5.05361 20.861 5.40406 20.8178L11.4672 20.0707L11.4673 20.0707C11.8986 20.0176 12.1143 19.991 12.3177 19.9196C12.5212 19.8483 12.7062 19.7343 13.0762 19.5063L13.0762 19.5063L13.0762 19.5063L23.9391 12.8136C21.6547 12.0314 19.6506 10.6295 18.1384 8.78884Z" fill="#222222"/>
</svg>
