<svg width="43" height="35" viewBox="0 0 43 35" fill="none" xmlns="http://www.w3.org/2000/svg">
<rect width="43" height="34.8986" fill="#D9D9D9"/>
<path d="M14.7838 28.5705C12.9287 28.5705 11.4277 29.9943 11.4277 31.7346C11.4277 33.4749 12.9287 34.8988 14.7838 34.8988C16.639 34.8988 18.1569 33.4749 18.1569 31.7346C18.1569 29.9943 16.639 28.5705 14.7838 28.5705ZM4.66479 3.25732V6.42147H8.03781L14.1092 18.4294L11.8325 22.3055C11.5626 22.7484 11.4108 23.2705 11.4108 23.8243C11.4108 25.5645 12.9287 26.9884 14.7838 26.9884H35.022V23.8243H15.4922C15.2561 23.8243 15.0706 23.6502 15.0706 23.4287L15.1211 23.2389L16.639 20.6601H29.2035C30.4684 20.6601 31.5815 20.0115 32.1549 19.0306L38.1926 8.76293C38.3275 8.54144 38.395 8.27249 38.395 8.00354C38.395 7.1334 37.636 6.42147 36.7085 6.42147H11.765L10.1797 3.25732H4.66479ZM31.6489 28.5705C29.7938 28.5705 28.2928 29.9943 28.2928 31.7346C28.2928 33.4749 29.7938 34.8988 31.6489 34.8988C33.5041 34.8988 35.022 33.4749 35.022 31.7346C35.022 29.9943 33.5041 28.5705 31.6489 28.5705Z" fill="black"/>
</svg>
