<svg width="30" height="33" viewBox="0 0 30 33" fill="none" xmlns="http://www.w3.org/2000/svg">
<rect width="30" height="32.8032" fill="#D9D9D9"/>
<path d="M10.3143 26.8549C9.02002 26.8549 7.97282 28.1933 7.97282 29.8291C7.97282 31.4649 9.02002 32.8032 10.3143 32.8032C11.6086 32.8032 12.6676 31.4649 12.6676 29.8291C12.6676 28.1933 11.6086 26.8549 10.3143 26.8549ZM3.25452 3.06165V6.03581H5.60778L9.84367 17.3227L8.25521 20.9661C8.06695 21.3825 7.96105 21.8732 7.96105 22.3937C7.96105 24.0295 9.02002 25.3678 10.3143 25.3678H24.4339V22.3937H10.8085C10.6438 22.3937 10.5143 22.2301 10.5143 22.0219L10.5496 21.8435L11.6086 19.4195H20.3745C21.257 19.4195 22.0336 18.8098 22.4337 17.8878L26.646 8.23668C26.7401 8.02849 26.7872 7.77569 26.7872 7.52289C26.7872 6.70499 26.2577 6.03581 25.6106 6.03581H8.20815L7.10211 3.06165H3.25452ZM22.0807 26.8549C20.7864 26.8549 19.7392 28.1933 19.7392 29.8291C19.7392 31.4649 20.7864 32.8032 22.0807 32.8032C23.375 32.8032 24.4339 31.4649 24.4339 29.8291C24.4339 28.1933 23.375 26.8549 22.0807 26.8549Z" fill="black"/>
</svg>
