<svg width="30" height="33" viewBox="0 0 30 33" fill="none" xmlns="http://www.w3.org/2000/svg">
<rect width="30" height="32.8032" fill="#D9D9D9"/>
<path d="M10.3142 26.8549C9.0199 26.8549 7.9727 28.1933 7.9727 29.8291C7.9727 31.4649 9.0199 32.8032 10.3142 32.8032C11.6085 32.8032 12.6675 31.4649 12.6675 29.8291C12.6675 28.1933 11.6085 26.8549 10.3142 26.8549ZM3.25439 3.06165V6.03581H5.60766L9.84355 17.3227L8.25509 20.9661C8.06683 21.3825 7.96093 21.8732 7.96093 22.3937C7.96093 24.0295 9.0199 25.3678 10.3142 25.3678H24.4338V22.3937H10.8084C10.6437 22.3937 10.5142 22.2301 10.5142 22.0219L10.5495 21.8435L11.6085 19.4195H20.3744C21.2569 19.4195 22.0335 18.8098 22.4335 17.8878L26.6459 8.23668C26.74 8.02849 26.7871 7.77569 26.7871 7.52289C26.7871 6.70499 26.2576 6.03581 25.6104 6.03581H8.20802L7.10199 3.06165H3.25439ZM22.0805 26.8549C20.7862 26.8549 19.739 28.1933 19.739 29.8291C19.739 31.4649 20.7862 32.8032 22.0805 32.8032C23.3748 32.8032 24.4338 31.4649 24.4338 29.8291C24.4338 28.1933 23.3748 26.8549 22.0805 26.8549Z" fill="black"/>
</svg>
