<svg width="37" height="46" viewBox="0 0 37 46" fill="none" xmlns="http://www.w3.org/2000/svg">
<rect width="37" height="45.0718" transform="translate(0 0.632507)" fill="#D9D9D9"/>
<path d="M12.721 37.5312C11.1247 37.5312 9.83316 39.3702 9.83316 41.6177C9.83316 43.8653 11.1247 45.7042 12.721 45.7042C14.3173 45.7042 15.6234 43.8653 15.6234 41.6177C15.6234 39.3702 14.3173 37.5312 12.721 37.5312ZM4.01392 4.83917V8.92568H6.91628L12.1405 24.434L10.1814 29.4399C9.94925 30.0121 9.81864 30.6863 9.81864 31.4015C9.81864 33.649 11.1247 35.488 12.721 35.488H30.1352V31.4015H13.3305C13.1273 31.4015 12.9677 31.1767 12.9677 30.8907L13.0112 30.6455L14.3173 27.315H25.1286C26.217 27.315 27.1748 26.4772 27.6682 25.2104L32.8634 11.9497C32.9795 11.6636 33.0376 11.3163 33.0376 10.9689C33.0376 9.84514 32.3845 8.92568 31.5864 8.92568H10.1234L8.75928 4.83917H4.01392ZM27.2328 37.5312C25.6365 37.5312 24.345 39.3702 24.345 41.6177C24.345 43.8653 25.6365 45.7042 27.2328 45.7042C28.8291 45.7042 30.1352 43.8653 30.1352 41.6177C30.1352 39.3702 28.8291 37.5312 27.2328 37.5312Z" fill="black"/>
</svg>
